# xmcd CD database file
#
# Track frame offsets:
#	150
#	18000
#	39687
#	61350
#
# Disc length: 1108 seconds
#
# Revision: 3
# Processed by: cddbd v1.5.1PL0 Copyright (c) Steve Scherf et al.
# Submitted via: CDex 1.51
#
DISCID=29045204
DTITLE=Harmonic Drive - I´m feeling the beat right noch ... tonight
DYEAR=1997
DGENRE=Pop
TTITLE0=I´m feeling the beat right now ... tonight (radio mix)
TTITLE1=I´m feeling the beat right now ... tonight (club mix)
TTITLE2=I´m feeling the beat right now ... tonight ( house mix)
TTITLE3=I´m feeling the beat right now ... tonight (instumental)
EXTD=YEAR: 1997
EXTT0=
EXTT1=
EXTT2=
EXTT3=
PLAYORDER=
